<svg width="120" height="80" viewBox="0 0 120 80" fill="none" xmlns="http://www.w3.org/2000/svg">
<g id="payment-methods/light/mastercard" clip-path="url(#clip0_52_2885)">
<path id="Rectangle 1" d="M0 10C0 4.47715 4.47715 0 10 0H110C115.523 0 120 4.47715 120 10V70C120 75.5229 115.523 80 110 80H10C4.47715 80 0 75.5229 0 70V10Z" fill="#CCDEFF"/>
<g id="g13">
<g id="XMLID_328_">
<path id="rect19" d="M72.5198 16.3184L46.6973 16.4072L47.4797 63.6818L73.3023 63.593L72.5198 16.3184Z" fill="#FF5F00"/>
<path id="XMLID_330_" d="M48.3971 40.1399C48.2373 30.5247 52.5446 21.9811 59.2912 16.4394C54.1988 12.4432 47.8145 10.0402 40.8937 10.0639C24.4982 10.1201 11.4571 23.6269 11.7336 40.2655C12.0101 56.9041 25.4986 70.3201 41.8941 70.2639C48.8149 70.2402 55.1186 67.7938 60.0777 63.7632C53.149 58.3519 48.5569 49.7552 48.3971 40.1399Z" fill="#EB001B"/>
<path id="path22" d="M108.267 39.7347C108.543 56.3733 95.502 69.8801 79.1064 69.9363C72.1856 69.96 65.8013 67.557 60.7088 63.5609C67.5379 58.0188 71.7628 49.4755 71.603 39.8603C71.4433 30.245 66.8525 21.7319 59.9224 16.237C64.8815 12.2065 71.1852 9.76001 78.106 9.73631C94.5015 9.68015 107.991 23.1797 108.267 39.7347Z" fill="#F79E1B"/>
</g>
</g>
</g>
<defs>
<clipPath id="clip0_52_2885">
<rect width="120" height="80" fill="white"/>
</clipPath>
</defs>
</svg>
